<?xml version="1.0" encoding="UTF-8"?>
<svg id="a" data-name="faint sparkles" xmlns="http://www.w3.org/2000/svg" viewBox="0 0 968.7422 920.8242">
  <defs>
    <style>
      .b {
        fill: #fff;
      }
    </style>
  </defs>
  <circle class="b" cx="142.0703" cy="892.8242" r="28"/>
  <circle class="b" cx="82.7578" cy="759.4727" r="28"/>
  <circle class="b" cx="79.3242" cy="766.457" r="28"/>
  <circle class="b" cx="228.9336" cy="721.7617" r="28"/>
  <circle class="b" cx="707.7461" cy="451.9375" r="28"/>
  <circle class="b" cx="699.0938" cy="466.9609" r="28"/>
  <circle class="b" cx="757.168" cy="374.5625" r="28"/>
  <circle class="b" cx="454.916" cy="155.7031" r="28"/>
  <circle class="b" cx="508.916" cy="163.7031" r="28"/>
  <circle class="b" cx="593.9844" cy="133" r="28"/>
  <circle class="b" cx="629.5391" cy="150.4492" r="28"/>
  <circle class="b" cx="659.5391" cy="161" r="28"/>
  <circle class="b" cx="725.0938" cy="174.4492" r="28"/>
  <circle class="b" cx="753.0938" cy="247.0117" r="28"/>
  <circle class="b" cx="775.582" cy="276.5664" r="28"/>
  <circle class="b" cx="884.7422" cy="326.5078" r="28"/>
  <circle class="b" cx="930.0469" cy="391.5742" r="28"/>
  <circle class="b" cx="940.7422" cy="474.1211" r="28"/>
  <circle class="b" cx="917.7656" cy="556.668" r="28"/>
  <circle class="b" cx="165.7383" cy="658.3555" r="28"/>
  <circle class="b" cx="28.7383" cy="494.9609" r="28"/>
  <circle class="b" cx="28" cy="418.1211" r="28"/>
  <circle class="b" cx="51.3242" cy="332.5664" r="28"/>
  <circle class="b" cx="193.7383" cy="192.7031" r="28"/>
  <circle class="b" cx="290.7383" cy="153.7031" r="28"/>
  <circle class="b" cx="715.7461" cy="483.9375" r="28"/>
  <circle class="b" cx="732.7461" cy="460.9375" r="28"/>
  <circle class="b" cx="557.7383" cy="741.3555" r="28"/>
  <circle class="b" cx="620.9844" cy="28" r="28"/>
</svg>