<?xml version="1.0" encoding="UTF-8"?>
<svg id="a" data-name="leaf" xmlns="http://www.w3.org/2000/svg" viewBox="0 0 936.0001 586">
  <defs>
    <style>
      .b {
        fill: #fff;
      }
    </style>
  </defs>
  <path class="b" d="M214.4553,451.0469s-70.1621,48.1372-78.2506,68.9279c-8.0884,20.7908-186.882-115.0195-122.0862-279.4695C78.9143,76.0553,249.7622,7.4533,340.3489,1.1501c90.5867-6.3031,74.3025,14.8746,110.0777,25.3494,35.7753,10.4748,71.8007,8.5646,96.8184,0s92.1667-.5558,126.1399,17.4854c33.9732,18.0413,28.1801,31.0683,37.5812,35.0766,9.4012,4.0083,30.932-7.0145,35.6775,19.0394s25.2471,34.5744,42.0154,37.3287c16.7683,2.7543,188.5314,38.494,138.1079,242.7358-56.0396,226.9897-338.6964,219.0443-383.2746,197.9256-48.8568-23.1456-280.1979,19.9437-291.2057-8.1145-9.619-24.5183-38.277-27.1539-54.2883-28.0581-16.0113-.9042-16.1208-18.9416-11.5629-30.9665s17.4576-50.6753,28.0198-57.9051Z"/>
</svg>