<?xml version="1.0" encoding="UTF-8"?>
<svg xmlns="http://www.w3.org/2000/svg" version="1.1" viewBox="0 0 200 70">
  <!-- Generator: Adobe Illustrator 30.2.1, SVG Export Plug-In . SVG Version: 2.1.1 Build 1)  -->
  <defs>
    <style>
      .st0 {
        display: none;
      }
    </style>
  </defs>
  <g id="Layer_4">
    <g>
      <path d="M73.5384,38.2019c.4081,0,.653.5304.2857.8979l-7.5092,7.5498c-.4896.4898-.9793.9795-.9793,1.4693,0,.4081.3672.6528,1.5508.6528,3.1014,0,6.0807-2.3261,8.8149-4.6522.5306-.4489,1.2651.3672.7347.8162-2.9793,2.5712-6.0401,4.938-9.9985,4.938-2.8976,0-5.0605-.6938-5.0605-2.4895,0-1.2242.857-2.0404,1.4691-2.6117l6.1624-5.9175c.4081-.4081.653-.653,1.1834-.653s.9387.1223,1.6325.1223c.653,0,1.1834-.1223,1.714-.1223ZM80.7618,26.1628c0,1.8772-2.6119,3.9178-4.4891,3.9178-.9387,0-1.4693-.5304-1.4693-1.3059,0-1.8364,2.5304-3.9178,4.4893-3.9178.9385,0,1.4691.5306,1.4691,1.3059Z"/>
      <path d="M89.6979,25.5098c.4489,0,.8164.1225,1.3876.1225.4898,0,1.0202-.1225,1.3876-.1225.4081,0,.6121.4898.2855.8979l-12.0797,15.9569c-1.2244,1.6323-1.7549,2.571-1.7549,3.7544,0,1.5102,1.0202,2.2853,2.2446,2.2853,2.9791,0,5.3461-1.9587,8.0803-4.2848.5306-.4489,1.2653.3672.7347.8162-2.9791,2.5712-5.9175,4.938-10.3251,4.938-3.428,0-4.5706-1.7957-4.5706-3.8769,0-1.4285.7345-2.8567,2.0812-4.6524l11.3453-14.9365c.2855-.4081.6121-.8979,1.1834-.8979Z"/>
      <path d="M90.9207,62.8103c0,.7345.204,1.2242.4489,1.5917.3264.4898.7347.8568.7347,1.3466,0,.5304-.4898.9795-1.0204.9795-.9385,0-1.8772-1.3876-1.8772-3.061,0-2.2851,1.8772-4.5297,4.4482-6.3254,2.5712-1.7953,4.9382-4.8156,7.142-8.0396-.653.3674-1.3468.5715-2.6936.5715-2.4487,0-4.6931-.6528-4.6931-2.5712,0-1.1017.7753-1.8364,1.5506-2.53l3.3057-2.9793c.2857-.2449.653-.6938.653-1.1834,0-.4489-.3264-.7347-.8979-.7347-2.2038,0-5.1829,2.571-8.0396,5.0605-.5304.4489-1.2651-.3674-.7345-.8162,3.1014-2.6527,6.9377-5.9175,10.1617-5.9175,1.9997,0,3.0608,1.1019,3.0608,2.5302,0,1.3876-.9795,2.4078-1.5508,2.9384l-2.8976,2.6119c-.4896.4489-.857.816-.857,1.4691,0,.6121.5306,1.0202,1.51,1.0202,1.061,0,3.1016-.8162,4.5708-2.775l5.1014-6.8562c.2857-.4081.4898-.5713,1.061-.5713.4489,0,1.061.0817,1.6732.0817s1.2244-.0817,1.6734-.0817c.3672,0,.653.2857.2449.7753l-10.0802,12.2842c-3.224,3.9178-4.6524,5.2237-9.0598,7.4271-2.4895,1.2244-2.9384,2.5304-2.9384,3.7546Z"/>
      <path d="M136.3819,49.8735c-1.8774,0-2.9386-.4081-3.6325-1.1019-1.5913.6938-3.3463,1.1019-5.0603,1.1019-1.3876,0-2.1221-.6121-2.1221-1.5506,0-1.6327,2.3668-3.9588,5.142-3.9588,1.1019,0,1.7551.2857,2.2855.653,2.1221-1.7549,3.5504-3.1423,3.5504-4.3259,0-.6936-.8162-1.4691-2.7748-1.4691-4.8567,0-10.9783,3.3874-14.488,7.8356-5.3869,6.8154-11.0187,14.8137-13.5082,18.1605-.3672.4898-.6938.6938-1.2651.6938-.4489,0-.9387-.0817-1.7957-.0817-.8979,0-1.3468.0817-1.7955.0817-.3674,0-.6938-.2857-.204-.8572l15.4263-18.4051c-.4489.204-1.1427.3264-1.6734.3264-.8162,0-1.4691-.204-2.0404-.4487-.7347-.2857-.4081-1.3059.3264-1.0612.3266.1225.653.204,1.061.204,1.3876,0,3.0199-1.1834,4.4893-2.571,1.51-1.51,2.8567-3.224,3.5099-4.2033.204-.3266.4487-.653.8162-.653.2857,0,.4898.1223.9385.1223.4898,0,.6121-.1223.9385-.1223.3674,0,.4898.3672.204.7753l-1.3059,1.8772c2.6119-1.5508,6.0809-2.775,10.8149-2.775,4.4893,0,5.5094,1.4691,5.5094,3.1425,0,2.5302-1.9591,4.8971-5.3871,6.7745.2857.2857.9795.7345,2.2038.7345,2.6529,0,5.5501-2.3261,8.2847-4.6522.5304-.4489,1.2649.3672.7345.8162-2.9793,2.5712-6.0809,4.938-9.1821,4.938ZM130.3827,45.466c-1.5917,0-3.428,1.51-3.428,2.4489,0,.3264.204.5304.6121.5304,1.0202,0,2.3668-.9795,4.1218-2.367-.1634-.2857-.4898-.6123-1.3059-.6123Z"/>
      <path d="M146.0925,49.8735c-1.551,0-3.3057-.5715-3.3057-2.6119,0-3.5912,5.0603-4.8971,8.6928-4.8971,1.2242,0,2.8159.2449,3.7137.2449,1.1015,0,1.7953-.2857,2.8565-1.1836.4898-.4081,1.0612-.9387,1.0612-1.4691,0-.4898-.6125-.6938-1.2653-.6938-1.8774,0-2.8976.3672-3.3874.8162-.7755.7347-.5711,1.51-1.5506,1.51-.5715,0-.9795-.3672-.9795-.857,0-1.1834,2.2038-2.5302,6.0809-2.5302,2.8159,0,4.8563.6938,4.8563,2.4893,0,.9795-.6121,1.7549-.9795,2.1223l-4.6522,4.4076c-.3264.3264-.6938.7345-.6938,1.0202s.2447.5304,1.1425.5304c3.0199,0,5.8769-2.3261,8.6111-4.6522.5304-.4489,1.2653.3672.7345.8162-2.9789,2.5712-6.0399,4.938-9.6719,4.938-2.6525,0-4.8563-.6528-4.8973-2.1627-1.673,1.1425-3.9178,2.1627-6.3663,2.1627ZM155.234,43.6705c-.8572,0-2.4485-.2449-3.224-.2449-2.9793,0-5.5505,2.2444-5.5505,4.0401,0,.6938.4081,1.1019,1.1429,1.1019,2.4078,0,6.3256-3.224,7.3052-4.1218l.8162-.8162s-.2451.0408-.4898.0408Z"/>
      <path d="M181.677,48.1595c0,.3674.2857.6121,1.1429.6121,3.0199,0,5.8765-2.3261,8.6111-4.6522.5304-.4489,1.2649.3672.7345.8162-2.9793,2.5712-6.0399,4.938-9.5496,4.938-3.1423,0-3.9995-.9385-4.2035-2.1221-2.3672,1.2653-5.5501,2.1221-8.5294,2.1221-3.6321,0-4.7746-1.2653-4.7746-2.9382,0-3.7137,5.2237-8.7334,15.9158-8.7334,1.2242,0,2.3672.2855,3.0606.653l9.5089-12.4472c.2857-.4081.6121-.8979,1.1836-.8979.4487,0,.8162.1225,1.3876.1225.4898,0,1.0202-.1225,1.3876-.1225.4081,0,.6121.4898.2853.8979l-15.5078,20.5276c-.4487.5715-.6532.8162-.6532,1.2242ZM181.31,39.3037c-5.3871,0-12.6512,6.2439-12.6512,8.57,0,.6121.4898.8979,1.3466.8979,5.8769,0,12.6512-6.5296,12.6512-8.57,0-.6123-.4898-.8979-1.3466-.8979Z"/>
    </g>
    <path d="M38.4,38.8556l2.1219-3.9174c6.9373-12.7319,17.1391-25.0555,27.2591-25.0555,2.4485,0,3.7544,2.0402,3.7544,4.6518,0,10.0388-15.2619,24.6477-26.8512,26.8512-4.8152,5.8763-11.7524,9.3041-18.2816,10.3649,3.8359,4.4889,7.2637,6.6922,13.14,6.6922,7.9167,0,13.9561-4.6518,19.4241-9.3039,1.061-.8977,2.5302.7347,1.4691,1.6323-5.9578,5.1418-12.1604,9.8754-21.7911,9.8754-5.6314,0-15.7514-1.3876-21.138-8.5694-7.4269-.4898-15.5068-2.6117-15.5068-7.9167,0-2.938,2.6117-4.8969,6.6107-4.8969,6.2027,0,10.9362,4.244,16.1595,10.5283,6.2029-.9793,9.7122-4.5704,12.4055-8.8143-4.4072-1.4691-7.1822-5.5499-7.1822-11.0179,0-13.6296,15.7516-26.6879,34.1149-26.6879,8.9775,0,18.1182,5.0599,21.2196,14.364.4898,1.3874-1.6323,2.0404-2.1219.653-2.775-8.3247-11.0996-12.8134-19.0978-12.8134-16.8942,0-30.4422,12.1604-30.4422,25.6268,0,3.2646,1.3874,6.6924,4.7337,7.7533ZM13.0179,45.0585c-1.1425-1.8772-2.7748-3.5912-4.4072-3.5912-2.0404,0-3.4278,1.061-3.4278,2.8565,0,3.1014,5.305,4.8152,10.773,5.5499l-2.938-4.8152ZM67.781,12.0863c-4.8152,0-11.8341,11.1811-17.7918,21.2196l-3.1014,5.2233c10.2019-3.3461,22.4441-15.8331,22.4441-23.9947,0-1.224-.3266-2.4483-1.5508-2.4483Z"/>
  </g>
  <g id="Layer_1_copy_3">
    <g id="Dalliance_OT_type" class="st0">
      <g>
        <path d="M-487.3896,41.998c1,0,1.6001,1.2998.7002,2.2002l-18.4014,18.501c-1.1997,1.2002-2.3999,2.4004-2.3999,3.6006,0,1,.8999,1.5996,3.8003,1.5996,7.6001,0,14.9009-5.7002,21.6011-11.4004,1.3003-1.0996,3.1001.9004,1.8003,2-7.3008,6.3008-14.8013,12.1006-24.5015,12.1006-7.1006,0-12.4009-1.7002-12.4009-6.1006,0-3,2.1001-5,3.6001-6.3994l15.1011-14.501c1-1,1.6001-1.6006,2.8999-1.6006s2.3003.2998,4.0005.2998c1.6001,0,2.8999-.2998,4.2002-.2998ZM-469.6885,12.4966c0,4.6001-6.4004,9.6006-11.0005,9.6006-2.3003,0-3.6006-1.2998-3.6006-3.2002,0-4.5,6.2007-9.6006,11.001-9.6006,2.2998,0,3.6001,1.3003,3.6001,3.2002Z"/>
        <path d="M-447.7905,10.8965c1.1001,0,2.0005.3003,3.4004.3003,1.2002,0,2.5-.3003,3.4004-.3003,1,0,1.5,1.2002.6997,2.2002l-29.6016,39.1025c-3.0005,4-4.3003,6.2998-4.3003,9.2002,0,3.7002,2.5,5.5996,5.5005,5.5996,7.3003,0,13.1006-4.7998,19.8008-10.5,1.3003-1.0996,3.1006.9004,1.8003,2-7.3003,6.3008-14.501,12.1006-25.3018,12.1006-8.4004,0-11.2002-4.4004-11.2002-9.5,0-3.501,1.7998-7.001,5.1001-11.4014l27.8018-36.6016c.6997-1,1.5-2.2002,2.8999-2.2002Z"/>
        <path d="M-444.7939,102.3018c0,1.7998.5,3,1.1001,3.9004.7998,1.2002,1.8003,2.0996,1.8003,3.2998,0,1.2998-1.2002,2.4004-2.5005,2.4004-2.2998,0-4.6001-3.4004-4.6001-7.501,0-5.5996,4.6001-11.1006,10.9004-15.501,6.3008-4.3994,12.1011-11.8008,17.5015-19.7012-1.6001.9004-3.3003,1.4004-6.6006,1.4004-6.0005,0-11.5005-1.5996-11.5005-6.3008,0-2.6992,1.8999-4.5,3.7998-6.1992l8.1006-7.3008c.7002-.6006,1.6001-1.7002,1.6001-2.9004,0-1.0996-.7998-1.7998-2.2002-1.7998-5.4004,0-12.7007,6.2998-19.7012,12.4004-1.2998,1.1006-3.1001-.9004-1.7998-2,7.6001-6.5,17.001-14.501,24.9014-14.501,4.9004,0,7.5005,2.7002,7.5005,6.2002,0,3.4004-2.4004,5.9004-3.8003,7.2012l-7.1006,6.4004c-1.1997,1.0996-2.1001,1.999-2.1001,3.5996,0,1.5,1.3003,2.5,3.7002,2.5,2.6001,0,7.6006-2,11.2012-6.7998l12.501-16.8018c.7002-1,1.2002-1.3994,2.5996-1.3994,1.1006,0,2.6006.2002,4.1006.2002s3-.2002,4.1006-.2002c.8994,0,1.5996.7002.5996,1.8994l-24.7012,30.1025c-7.9009,9.6006-11.4014,12.8008-22.2017,18.2002-6.1006,3.001-7.2007,6.2012-7.2007,9.2012Z"/>
        <path d="M-333.3906,70.5996c-4.6006,0-7.2012-1-8.9014-2.7002-3.8994,1.7002-8.2002,2.7002-12.4004,2.7002-3.4004,0-5.2002-1.5-5.2002-3.7998,0-4.001,5.7998-9.7012,12.6006-9.7012,2.7002,0,4.3008.7002,5.6006,1.6006,5.2002-4.3008,8.7002-7.7002,8.7002-10.6006,0-1.7002-2-3.6006-6.7998-3.6006-11.9014,0-26.9023,8.3008-35.5029,19.2012-13.2002,16.7012-27.001,36.3018-33.1016,44.5029-.9004,1.2002-1.7002,1.7002-3.1006,1.7002-1.0996,0-2.2998-.2002-4.4004-.2002-2.2002,0-3.3003.2002-4.3999.2002-.9004,0-1.7002-.7002-.5-2.1006l37.8022-45.1025c-1.0996.5-2.7998.7998-4.1006.7998-2,0-3.5996-.5-5-1.0996-1.7998-.7002-1-3.2002.7998-2.6006.8008.3008,1.6006.5,2.6006.5,3.4004,0,7.4004-2.8994,11.001-6.2998,3.7002-3.7002,7-7.9004,8.6006-10.3008.5-.7998,1.0996-1.5996,2-1.5996.7002,0,1.2002.2998,2.2998.2998,1.2002,0,1.5-.2998,2.2998-.2998.9004,0,1.2002.8994.5,1.8994l-3.2002,4.6006c6.4004-3.8008,14.9014-6.8008,26.502-6.8008,11.001,0,13.501,3.6006,13.501,7.7012,0,6.2002-4.8008,12-13.2012,16.6006.7002.7002,2.4004,1.7998,5.4004,1.7998,6.501,0,13.6006-5.7002,20.3018-11.4004,1.2998-1.0996,3.0996.9004,1.7998,2-7.3008,6.3008-14.9014,12.1006-22.501,12.1006ZM-348.0918,59.7988c-3.9004,0-8.4004,3.7002-8.4004,6.001,0,.7998.5,1.2998,1.5,1.2998,2.5,0,5.7998-2.4004,10.1006-5.7998-.4004-.7002-1.2002-1.501-3.2002-1.501Z"/>
        <path d="M-309.5947,70.5996c-3.8008,0-8.1006-1.4004-8.1006-6.4004,0-8.7998,12.4004-12,21.3018-12,3,0,6.9004.5996,9.1006.5996,2.6992,0,4.3994-.7002,7-2.9004,1.2002-1,2.6006-2.2998,2.6006-3.5996,0-1.2002-1.501-1.7002-3.1006-1.7002-4.6006,0-7.1006.8994-8.3008,2-1.9004,1.7998-1.3994,3.7002-3.7998,3.7002-1.4004,0-2.4004-.9004-2.4004-2.1006,0-2.8994,5.4004-6.2002,14.9014-6.2002,6.9004,0,11.9004,1.7002,11.9004,6.1006,0,2.4004-1.5,4.2998-2.4004,5.2002l-11.4004,10.8008c-.7998.7998-1.7002,1.7998-1.7002,2.5s.5996,1.2998,2.7998,1.2998c7.4004,0,14.4014-5.7002,21.1016-11.4004,1.2998-1.0996,3.1006.9004,1.7998,2-7.2998,6.3008-14.8008,12.1006-23.7012,12.1006-6.5,0-11.9004-1.5996-12.001-5.2998-4.0996,2.7998-9.6006,5.2998-15.6006,5.2998ZM-287.1934,55.3994c-2.1006,0-6-.6006-7.9004-.6006-7.3008,0-13.6016,5.5-13.6016,9.9004,0,1.7002,1,2.7002,2.8008,2.7002,5.9004,0,15.501-7.9004,17.9014-10.1006l2-2s-.6006.1006-1.2002.1006Z"/>
        <path d="M-222.3945,66.3994c0,.9004.7002,1.5,2.8008,1.5,7.4004,0,14.4004-5.7002,21.1016-11.4004,1.2998-1.0996,3.0996.9004,1.7998,2-7.3008,6.3008-14.8008,12.1006-23.4014,12.1006-7.7002,0-9.8008-2.2998-10.3008-5.2002-5.8008,3.1006-13.6006,5.2002-20.9014,5.2002-8.9004,0-11.7002-3.1006-11.7002-7.2002,0-9.1006,12.8008-21.4014,39.002-21.4014,3,0,5.8008.7002,7.5,1.6006l23.3018-30.502c.7002-1,1.5-2.2002,2.9004-2.2002,1.0996,0,2,.3003,3.4004.3003,1.2002,0,2.5-.3003,3.4004-.3003,1,0,1.5,1.2002.6992,2.2002l-38.002,50.3027c-1.0996,1.4004-1.6006,2-1.6006,3ZM-223.2939,44.6982c-13.2012,0-31.002,15.3008-31.002,21.001,0,1.5,1.2002,2.2002,3.2998,2.2002,14.4014,0,31.002-16.001,31.002-21.001,0-1.5-1.2002-2.2002-3.2998-2.2002Z"/>
      </g>
      <path d="M-573.4966,43.6006l5.1997-9.5996c17-31.1997,41.9995-61.3989,66.7988-61.3989,6,0,9.2002,4.9995,9.2002,11.3994,0,24.6001-37.3994,60.3999-65.7993,65.7993-11.7998,14.4004-28.7993,22.7998-44.7993,25.3994,9.3999,11,17.7998,16.3994,32.1997,16.3994,19.3999,0,34.1997-11.3994,47.5991-22.7988,2.6001-2.2002,6.2002,1.7998,3.6001,4-14.5996,12.5996-29.7993,24.1992-53.3994,24.1992-13.7998,0-38.5991-3.4004-51.7988-20.999-18.1997-1.2002-37.9995-6.4004-37.9995-19.4004,0-7.1992,6.3999-12,16.1997-12,15.1997,0,26.7993,10.4004,39.5991,25.7998,15.2002-2.3994,23.7998-11.1992,30.3999-21.5996-10.7998-3.5996-17.6001-13.6001-17.6001-26.9995,0-33.3994,38.5996-65.3989,83.5991-65.3989,21.9995,0,44.3989,12.3994,51.999,35.1992,1.2002,3.3999-4,5-5.1997,1.6001-6.8003-20.3999-27.1997-31.3994-46.7993-31.3994-41.3994,0-74.5991,29.7993-74.5991,62.7988,0,8,3.3999,16.3999,11.6001,18.9995ZM-635.6958,58.8008c-2.7998-4.5996-6.7998-8.7998-10.7998-8.7998-5,0-8.3999,2.5996-8.3999,7,0,7.5996,13,11.7998,26.3994,13.5996l-7.1997-11.7998ZM-501.498-21.998c-11.7998,0-28.9995,27.3994-43.5991,51.999l-7.6001,12.7998c25-8.1997,54.9995-38.7993,54.9995-58.7993,0-2.9995-.8003-5.9995-3.8003-5.9995Z"/>
      <path d="M-573.4966,43.6006l5.1997-9.5996c17-31.1997,41.9995-61.3989,66.7988-61.3989,6,0,9.2002,4.9995,9.2002,11.3994,0,24.6001-37.3994,60.3999-65.7993,65.7993-11.7998,14.4004-28.7993,22.7998-44.7993,25.3994,9.3999,11,17.7998,16.3994,32.1997,16.3994,19.3999,0,34.1997-11.3994,47.5991-22.7988,2.6001-2.2002,6.2002,1.7998,3.6001,4-14.5996,12.5996-29.7993,24.1992-53.3994,24.1992-13.7998,0-38.5991-3.4004-51.7988-20.999-18.1997-1.2002-37.9995-6.4004-37.9995-19.4004,0-7.1992,6.3999-12,16.1997-12,15.1997,0,26.7993,10.4004,39.5991,25.7998,15.2002-2.3994,23.7998-11.1992,30.3999-21.5996-10.7998-3.5996-17.6001-13.6001-17.6001-26.9995,0-33.3994,38.5996-65.3989,83.5991-65.3989,21.9995,0,44.3989,12.3994,51.999,35.1992,1.2002,3.3999-4,5-5.1997,1.6001-6.8003-20.3999-27.1997-31.3994-46.7993-31.3994-41.3994,0-74.5991,29.7993-74.5991,62.7988,0,8,3.3999,16.3999,11.6001,18.9995ZM-635.6958,58.8008c-2.7998-4.5996-6.7998-8.7998-10.7998-8.7998-5,0-8.3999,2.5996-8.3999,7,0,7.5996,13,11.7998,26.3994,13.5996l-7.1997-11.7998ZM-501.498-21.998c-11.7998,0-28.9995,27.3994-43.5991,51.999l-7.6001,12.7998c25-8.1997,54.9995-38.7993,54.9995-58.7993,0-2.9995-.8003-5.9995-3.8003-5.9995Z"/>
    </g>
    <g id="outlines" class="st0">
      <g>
        <path d="M-528.8902,47.0201c1.64,0,2.6242,2.1317,1.1483,3.6083l-30.1782,30.3416c-1.9675,1.9683-3.9358,3.9366-3.9358,5.905,0,1.64,1.4758,2.6234,6.2325,2.6234,12.4642,0,24.4374-9.3483,35.4258-18.6966,2.1325-1.8042,5.0842,1.4758,2.9525,3.28-11.9733,10.3333-24.2741,19.845-40.1824,19.845-11.645,0-20.3374-2.7883-20.3374-10.005,0-4.92,3.4442-8.2,5.9042-10.4958l24.7658-23.7816c1.64-1.64,2.6242-2.6242,4.7558-2.6242s3.7725.4917,6.5608.4917c2.6242,0,4.7558-.4917,6.8883-.4917ZM-499.8603-1.3631c0,7.5442-10.4966,15.745-18.0408,15.745-3.7725,0-5.905-2.1317-5.905-5.2483,0-7.38,10.1691-15.745,18.0416-15.745,3.7717,0,5.9042,2.1325,5.9042,5.2483Z"/>
        <path d="M-463.9476-3.9873c1.8042,0,3.2808.4925,5.5766.4925,1.9683,0,4.1-.4925,5.5766-.4925,1.64,0,2.46,1.9683,1.1475,3.6083l-48.5466,64.1282c-4.9208,6.56-7.0525,10.3325-7.0525,15.0883,0,6.0691,4.1,9.1842,9.0208,9.1842,11.9725,0,21.485-7.8717,32.4733-17.22,2.1325-1.8042,5.085,1.4758,2.9525,3.28-11.9725,10.3333-23.7816,19.845-41.4949,19.845-13.7766,0-18.3683-7.2166-18.3683-15.5808,0-5.7408,2.9517-11.4808,8.3642-18.6974L-468.7035-.3789c1.1475-1.64,2.46-3.6083,4.7558-3.6083Z"/>
        <path d="M-459.0332,145.9174c0,2.9517.82,4.92,1.8042,6.3966,1.3117,1.9683,2.9525,3.4434,2.9525,5.4117,0,2.1317-1.9683,3.9366-4.1008,3.9366-3.7717,0-7.5442-5.5766-7.5442-12.3016,0-9.1834,7.5442-18.2042,17.8766-25.4208,10.3333-7.215,19.8458-19.3533,28.7024-32.3099-2.6242,1.4766-5.4125,2.2966-10.825,2.2966-9.8408,0-18.8608-2.6234-18.8608-10.3333,0-4.4275,3.1158-7.38,6.2317-10.1675l13.285-11.9733c1.1483-.9842,2.6242-2.7883,2.6242-4.7558,0-1.8042-1.3117-2.9525-3.6083-2.9525-8.8566,0-20.8291,10.3325-32.3099,20.3374-2.1317,1.8042-5.0842-1.4766-2.9517-3.28,12.4642-10.6608,27.8816-23.7816,40.8382-23.7816,8.0366,0,12.3008,4.4283,12.3008,10.1683,0,5.5766-3.9366,9.6766-6.2325,11.8091l-11.645,10.4966c-1.9675,1.8042-3.4442,3.2792-3.4442,5.9042,0,2.46,2.1325,4.1,6.0683,4.1,4.2642,0,12.465-3.28,18.3691-11.1525l20.5016-27.5541c1.1483-1.64,1.9683-2.2958,4.2642-2.2958,1.8042,0,4.2642.3283,6.7242.3283s4.9208-.3283,6.725-.3283c1.4758,0,2.6242,1.1483.9842,3.1158l-40.5107,49.3682c-12.9566,15.745-18.6974,20.9933-36.4099,29.8483-10.005,4.9208-11.8091,10.1691-11.8091,15.0891Z"/>
        <path d="M-276.3318,93.9267c-7.545,0-11.8099-1.64-14.5982-4.4283-6.395,2.7883-13.4483,4.4283-20.3366,4.4283-5.5766,0-8.5283-2.46-8.5283-6.2317,0-6.5616,9.5117-15.9099,20.665-15.9099,4.4283,0,7.0533,1.1483,9.185,2.6242,8.5283-7.0525,14.2683-12.6283,14.2683-17.385,0-2.7875-3.28-5.9042-11.1517-5.9042-19.5182,0-44.1198,13.6133-58.2248,31.4899-21.6491,27.3899-44.2824,59.5341-54.2874,72.984-1.4758,1.9683-2.7883,2.7883-5.0842,2.7883-1.8042,0-3.7725-.3283-7.2166-.3283-3.6083,0-5.4125.3283-7.2158.3283-1.4766,0-2.7883-1.1483-.82-3.445l61.9957-73.9674c-1.8042.82-4.5925,1.3117-6.725,1.3117-3.28,0-5.9042-.82-8.2-1.8034-2.9525-1.1483-1.64-5.2483,1.3117-4.265,1.3125.4925,2.6242.82,4.2642.82,5.5766,0,12.1366-4.7558,18.0416-10.3325,6.0683-6.0683,11.4808-12.9566,14.1058-16.8925.82-1.3125,1.8034-2.6242,3.28-2.6242,1.1483,0,1.9683.4917,3.7717.4917,1.9683,0,2.46-.4917,3.7717-.4917,1.4766,0,1.9683,1.4758.82,3.1158l-5.2483,7.5442c10.4966-6.2325,24.4382-11.1525,43.4632-11.1525,18.0416,0,22.1416,5.9042,22.1416,12.6291,0,10.1683-7.8733,19.6808-21.6499,27.2258,1.1483,1.1483,3.9366,2.9517,8.8566,2.9517,10.6616,0,22.305-9.3483,33.2949-18.6966,2.1317-1.8042,5.0834,1.4758,2.9517,3.28-11.9733,10.3333-24.4382,19.845-36.9016,19.845ZM-300.4417,76.2134c-6.3966,0-13.7766,6.0683-13.7766,9.8416,0,1.3117.82,2.1317,2.46,2.1317,4.1,0,9.5117-3.9366,16.565-9.5125-.6566-1.1483-1.9683-2.4608-5.2483-2.4608Z"/>
        <path d="M-237.3065,93.9267c-6.2333,0-13.285-2.2966-13.285-10.4966,0-14.4325,20.3366-19.6808,34.9349-19.6808,4.92,0,11.3166.9842,14.925.9842,4.4267,0,7.215-1.1483,11.48-4.7566,1.9683-1.64,4.265-3.7725,4.265-5.9042,0-1.9683-2.4616-2.7883-5.085-2.7883-7.545,0-11.645,1.4758-13.6133,3.28-3.1166,2.9525-2.295,6.0683-6.2317,6.0683-2.2966,0-3.9366-1.4758-3.9366-3.4442,0-4.7558,8.8566-10.1683,24.4382-10.1683,11.3166,0,19.5166,2.7883,19.5166,10.0042,0,3.9366-2.46,7.0525-3.9366,8.5291l-18.6966,17.7133c-1.3117,1.3117-2.7883,2.9517-2.7883,4.1s.9834,2.1317,4.5917,2.1317c12.1366,0,23.6182-9.3483,34.6066-18.6966,2.1317-1.8042,5.085,1.4758,2.9517,3.28-11.9717,10.3333-24.2733,19.845-38.8699,19.845-10.66,0-19.5166-2.6234-19.6816-8.6917-6.7234,4.5917-15.745,8.6917-25.585,8.6917ZM-200.5683,68.9975c-3.445,0-9.84-.9842-12.9566-.9842-11.9733,0-22.3066,9.02-22.3066,16.2366,0,2.7883,1.64,4.4283,4.5933,4.4283,9.6766,0,25.4216-12.9566,29.3582-16.565l3.28-3.28s-.985.1642-1.9683.1642Z"/>
        <path d="M-94.2982,87.0383c0,1.4766,1.1483,2.46,4.5933,2.46,12.1366,0,23.6166-9.3483,34.6066-18.6966,2.1317-1.8042,5.0834,1.4758,2.9517,3.28-11.9733,10.3333-24.2733,19.845-38.3782,19.845-12.6283,0-16.0733-3.7717-16.8933-8.5283-9.5133,5.085-22.305,8.5283-34.2782,8.5283-14.5966,0-19.1883-5.085-19.1883-11.8083,0-14.925,20.9933-35.0982,63.9632-35.0982,4.92,0,9.5133,1.1475,12.3,2.6242L-46.4067-.3789c1.1483-1.64,2.46-3.6083,4.7566-3.6083,1.8034,0,3.28.4925,5.5766.4925,1.9683,0,4.1-.4925,5.5766-.4925,1.64,0,2.46,1.9683,1.1467,3.6083l-62.3232,82.4973c-1.8034,2.2966-2.625,3.28-2.625,4.92ZM-95.7732,51.4484c-21.6499,0-50.8432,25.0933-50.8432,34.4416,0,2.46,1.9683,3.6083,5.4117,3.6083,23.6182,0,50.8432-26.2416,50.8432-34.4416,0-2.4608-1.9683-3.6083-5.4117-3.6083Z"/>
      </g>
      <path d="M-670.1056,49.6475l8.5275-15.7434c27.88-51.1675,68.8792-100.6942,109.5501-100.6942,9.84,0,15.0883,8.1992,15.0883,18.695,0,40.3442-61.335,99.055-107.9109,107.9109-19.3517,23.6158-47.2309,37.3917-73.4709,41.655,15.4158,18.04,29.1917,26.895,52.8075,26.895,31.8158,0,56.0875-18.695,78.0626-37.3909,4.2642-3.6075,10.1683,2.9525,5.9042,6.56-23.9434,20.6642-48.8709,39.6875-87.575,39.6875-22.6317,0-63.3026-5.5766-84.9501-34.4392-29.8475-1.9683-62.3192-10.4958-62.3192-31.8158,0-11.8075,10.4958-19.68,26.5675-19.68,24.9275,0,43.9509,17.0558,64.9426,42.3117,24.9283-3.9358,39.0317-18.3675,49.8558-35.4234-17.7117-5.9042-28.8642-22.3042-28.8642-44.2792,0-54.775,63.3034-107.2542,137.1026-107.2542,36.0792,0,72.8142,20.335,85.2784,57.7267,1.9683,5.5758-6.56,8.2-8.5275,2.6242-11.1525-33.4558-44.6075-51.495-76.7509-51.495-67.895,0-122.3426,48.8709-122.3426,102.9901,0,13.12,5.5758,26.8958,19.0242,31.1592ZM-772.1123,74.5758c-4.5917-7.5442-11.1517-14.4325-17.7117-14.4325-8.2,0-13.7758,4.2642-13.7758,11.48,0,12.4642,21.32,19.3517,43.295,22.3042l-11.8075-19.3517ZM-552.028-57.9343c-19.3517,0-47.5592,44.935-71.5026,85.2784l-12.4642,20.9917c41-13.4475,90.1992-63.6309,90.1992-96.4309,0-4.9192-1.3125-9.8392-6.2325-9.8392Z"/>
    </g>
    <g id="export">
      <g>
        <path d="M-526.3866,47.9172c1.6406,0,2.6252,2.1399,1.1488,3.6222l-30.19,30.4582c-1.9683,1.9759-3.9374,3.9518-3.9374,5.9277,0,1.6463,1.4764,2.6334,6.2349,2.6334,12.469,0,24.447-9.3842,35.4396-18.7685,2.1333-1.8111,5.0861,1.4815,2.9536,3.2926-11.9779,10.373-24.2835,19.9212-40.1981,19.9212-11.6495,0-20.3454-2.799-20.3454-10.0434,0-4.9389,3.4455-8.2315,5.9065-10.5362l24.7754-23.873c1.6406-1.6463,2.6252-2.6342,4.7577-2.6342s3.774.4936,6.5634.4936c2.6252,0,4.7577-.4936,6.891-.4936Z"/>
        <path d="M-497.3454-.6519c0,7.5732-10.5007,15.8055-18.0478,15.8055-3.774,0-5.9073-2.1399-5.9073-5.2685,0-7.4084,10.1731-15.8055,18.0486-15.8055,3.7732,0,5.9065,2.1407,5.9065,5.2685Z"/>
        <path d="M-461.4187-3.2862c1.8049,0,3.2821.4944,5.5788.4944,1.9691,0,4.1016-.4944,5.5788-.4944,1.6406,0,2.461,1.9759,1.148,3.6222l-48.5655,64.3746c-4.9227,6.5852-7.0552,10.3722-7.0552,15.1463,0,6.0924,4.1016,9.2195,9.0243,9.2195,11.9771,0,21.4933-7.9019,32.4859-17.2862,2.1333-1.8111,5.0869,1.4815,2.9536,3.2926-11.9771,10.373-23.7909,19.9212-41.5111,19.9212-13.782,0-18.3755-7.2444-18.3755-15.6407,0-5.7629,2.9528-11.5249,8.3674-18.7693L-466.1764.336c1.148-1.6463,2.461-3.6222,4.7577-3.6222Z"/>
        <path d="M-456.5024,147.1945c0,2.963.8203,4.9389,1.8049,6.4212,1.3122,1.9759,2.9536,3.4566,2.9536,5.4325,0,2.1399-1.9691,3.9518-4.1024,3.9518-3.7732,0-7.5471-5.5981-7.5471-12.3489,0-9.2186,7.5471-18.2741,17.8836-25.5185,10.3373-7.2428,19.8535-19.4277,28.7136-32.4341-2.6252,1.4823-5.4146,2.3055-10.8292,2.3055-9.8446,0-18.8682-2.6334-18.8682-10.373,0-4.4445,3.1171-7.4084,6.2341-10.2066l13.2901-12.0193c1.1488-.9879,2.6252-2.799,2.6252-4.7741,0-1.8111-1.3122-2.9638-3.6097-2.9638-8.8601,0-20.8372,10.3722-32.3225,20.4156-2.1325,1.8111-5.0861-1.4823-2.9528-3.2926,12.469-10.7018,27.8925-23.873,40.8542-23.873,8.0398,0,12.3056,4.4453,12.3056,10.2074,0,5.5981-3.9382,9.7138-6.2349,11.8545l-11.6495,10.537c-1.9683,1.8111-3.4455,3.2918-3.4455,5.9268,0,2.4695,2.1333,4.1158,6.0707,4.1158,4.2658,0,12.4698-3.2926,18.3763-11.1953l20.5096-27.66c1.1488-1.6463,1.9691-2.3047,4.2658-2.3047,1.8049,0,4.2658.3296,6.7268.3296s4.9227-.3296,6.7276-.3296c1.4764,0,2.6252,1.1527.9845,3.1278l-40.5265,49.5579c-12.9617,15.8055-18.7047,21.074-36.4241,29.963-10.0089,4.9397-11.8137,10.2082-11.8137,15.1471Z"/>
        <path d="M-273.7297,95.004c-7.5479,0-11.8145-1.6463-14.6039-4.4453-6.3975,2.799-13.4536,4.4453-20.3446,4.4453-5.5788,0-8.5316-2.4695-8.5316-6.2556,0-6.5868,9.5154-15.9711,20.673-15.9711,4.43,0,7.056,1.1527,9.1885,2.6342,8.5316-7.0796,14.2739-12.6768,14.2739-17.4518,0-2.7982-3.2813-5.9268-11.156-5.9268-19.5259,0-44.137,13.6656-58.2475,31.6109-21.6576,27.4952-44.2997,59.7629-54.3085,73.2645-1.4764,1.9759-2.7894,2.799-5.0861,2.799-1.8049,0-3.774-.3296-7.2195-.3296-3.6097,0-5.4146.3296-7.2187.3296-1.4772,0-2.7894-1.1527-.8203-3.4582l62.0199-74.2516c-1.8049.8232-4.5943,1.3167-6.7276,1.3167-3.2813,0-5.9065-.8232-8.2032-1.8103-2.9536-1.1527-1.6406-5.2685,1.3122-4.2814,1.313.4944,2.6252.8232,4.2658.8232,5.5788,0,12.1414-4.7741,18.0486-10.3722,6.0707-6.0916,11.4853-13.0064,14.1113-16.9574.8203-1.3175,1.8041-2.6342,3.2813-2.6342,1.1488,0,1.9691.4936,3.7732.4936,1.9691,0,2.461-.4936,3.7732-.4936,1.4772,0,1.9691,1.4815.8203,3.1278l-5.2504,7.5732c10.5007-6.2564,24.4478-11.1953,43.4801-11.1953,18.0486,0,22.1502,5.9268,22.1502,12.6777,0,10.2074-7.8764,19.7564-21.6584,27.3304,1.1488,1.1527,3.9382,2.963,8.8601,2.963,10.6658,0,22.3137-9.3842,33.3079-18.7685,2.1325-1.8111,5.0853,1.4815,2.9528,3.2926-11.9779,10.373-24.4478,19.9212-36.916,19.9212ZM-297.8491,77.2227c-6.3991,0-13.782,6.0916-13.782,9.8794,0,1.3167.8203,2.1399,2.461,2.1399,4.1016,0,9.5154-3.9518,16.5714-9.549-.6569-1.1527-1.9691-2.4703-5.2504-2.4703Z"/>
        <path d="M-234.6893,95.004c-6.2357,0-13.2901-2.3055-13.2901-10.537,0-14.4879,20.3446-19.7564,34.9485-19.7564,4.9219,0,11.3211.9879,14.9308.9879,4.4284,0,7.2179-1.1527,11.4845-4.7749,1.9691-1.6463,4.2666-3.787,4.2666-5.9268,0-1.9759-2.4626-2.799-5.0869-2.799-7.5479,0-11.6495,1.4815-13.6186,3.2926-3.1179,2.9638-2.2959,6.0916-6.2341,6.0916-2.2975,0-3.9382-1.4815-3.9382-3.4574,0-4.7741,8.8601-10.2074,24.4478-10.2074,11.3211,0,19.5243,2.799,19.5243,10.0426,0,3.9518-2.461,7.0796-3.9382,8.5619l-18.7039,17.7814c-1.3122,1.3167-2.7894,2.963-2.7894,4.1158s.9837,2.1399,4.5935,2.1399c12.1414,0,23.6275-9.3842,34.6201-18.7685,2.1325-1.8111,5.0869,1.4815,2.9528,3.2926-11.9763,10.373-24.2827,19.9212-38.8851,19.9212-10.6642,0-19.5243-2.6334-19.6893-8.7251-6.726,4.6093-15.7511,8.7251-25.5949,8.7251ZM-197.9367,69.9791c-3.4463,0-9.8438-.9879-12.9617-.9879-11.9779,0-22.3153,9.0547-22.3153,16.299,0,2.799,1.6406,4.4453,4.5951,4.4453,9.6804,0,25.4315-13.0064,29.3697-16.6286l3.2813-3.2926s-.9853.1648-1.9691.1648Z"/>
        <path d="M-91.6252,88.0892c0,1.4823,1.1488,2.4695,4.5951,2.4695,12.1414,0,23.6258-9.3842,34.6201-18.7685,2.1325-1.8111,5.0853,1.4815,2.9528,3.2926-11.9779,10.373-24.2827,19.9212-38.3932,19.9212-12.6332,0-16.0795-3.7862-16.8999-8.5611-9.517,5.1045-22.3137,8.5611-34.2916,8.5611-14.6023,0-19.1958-5.1045-19.1958-11.8537,0-14.9823,21.0015-35.2331,63.9881-35.2331,4.9219,0,9.517,1.1519,12.3048,2.6342L-43.715.336c1.1488-1.6463,2.461-3.6222,4.7585-3.6222,1.8041,0,3.2813.4944,5.5788.4944,1.9691,0,4.1016-.4944,5.5788-.4944,1.6406,0,2.461,1.9759,1.1472,3.6222l-62.3475,82.8143c-1.8041,2.3055-2.626,3.2926-2.626,4.9389ZM-93.1008,52.3625c-21.6584,0-50.863,25.1897-50.863,34.574,0,2.4695,1.9691,3.6222,5.4138,3.6222,23.6275,0,50.863-26.3424,50.863-34.574,0-2.4703-1.9691-3.6222-5.4138-3.6222Z"/>
      </g>
      <path d="M-487.5176-32.4172c-11.1568-33.5844-44.6249-51.6929-76.7808-51.6929-67.9215,0-122.3903,49.0587-122.3903,103.3859,0,13.1704,5.578,26.9992,19.0316,31.2789l8.5308-15.8038c27.8909-51.3641,68.9061-101.0812,109.5928-101.0812,9.8438,0,15.0942,8.2307,15.0942,18.7668,0,40.4992-61.3589,99.4357-107.9529,108.3256-19.3593,23.7066-47.2493,37.5354-73.4995,41.8151,15.4218,18.1093,29.2031,26.9984,52.8281,26.9984,31.8282,0,56.1094-18.7669,78.093-37.5346,4.2658-3.6213,10.1723,2.9639,5.9064,6.5853-23.9526,20.7435-48.8899,39.84-87.6091,39.84-22.6405,0-63.3273-5.5981-84.9832-34.5716-29.8591-1.9758-62.3435-10.5361-62.3435-31.938,0-11.8529,10.4999-19.7557,26.5779-19.7557,24.9373,0,43.968,17.1214,64.9679,42.4743,24.938-3.951,39.0469-18.4381,49.8752-35.5595-17.7186-5.9268-28.8754-22.3898-28.8754-44.4493,0-54.9855,63.3281-107.6664,137.1561-107.6664,36.0933,0,72.8426,20.4131,85.3116,57.9485,1.9691,5.5972-6.5626,8.2315-8.5309,2.6342ZM-757.8914,95.0048l-11.8121-19.4261c-4.5935-7.5731-11.1561-14.4879-17.7186-14.4879-8.2032,0-13.7812,4.2805-13.7812,11.5241,0,12.5121,21.3283,19.426,43.3119,22.3899ZM-633.5328,49.2379c41.0159-13.4992,90.2343-63.8754,90.2343-96.8015,0-4.9381-1.313-9.877-6.2349-9.877-19.3593,0-47.5778,45.1077-71.5305,85.6061l-12.469,21.0723Z"/>
    </g>
  </g>
</svg>